<svg version="1.2" xmlns="http://www.w3.org/2000/svg" viewBox="0 0 773 961" width="773" height="961">
	<title>Debian-OpenLogo-svg</title>
	<style>
		.s0 { fill: #d70751 } 
	</style>
	<path id="Layer" class="s0" d="m462.3 507.7c-16 0.2 2.9 8.1 23.7 11.4 5.8-4.5 11-9.1 15.6-13.5-12.9 3.2-26.1 3.3-39.3 2.1zm85.4-21.3c9.5-13.1 16.4-27.4 18.8-42.3-2.1 10.6-7.8 19.7-13.2 29.3-29.8 18.8-2.8-11.1 0-22.5-32 40.3-4.5 24.2-5.6 35.5zm31.5-82.1c2-28.7-5.6-19.6-8.1-8.7 2.9 1.6 5.3 20.2 8.1 8.7zm-177.3-391.9c8.5 1.5 18.3 2.7 16.9 4.7 9.3-2 11.4-3.9-16.9-4.7zm16.9 4.7l-6 1.3 5.6-0.6z"/>
	<path id="Layer" class="s0" d="m683.8 415.1c1 25.8-7.5 38.3-15.2 60.4l-13.8 6.9c-11.2 21.9 1.2 13.9-6.9 31.3-17.6 15.6-53.3 48.9-64.8 51.9-8.3-0.2 5.7-9.9 7.5-13.6-23.5 16.1-18.9 24.2-54.9 34l-1-2.3c-88.8 41.8-212.1-41-210.5-153.9-0.9 7.2-2.7 5.4-4.6 8.2-4.6-58 26.8-116.4 79.8-140.2 51.8-25.7 112.5-15.2 149.6 19.5-20.3-26.7-60.9-55.1-109-52.4-47.1 0.7-91.2 30.7-105.9 63.2-24.1 15.2-26.9 58.5-37.4 66.5-14.2 104 26.6 148.9 95.6 201.7 10.8 7.4 3 8.5 4.5 14-22.9-10.7-43.9-26.9-61.2-46.7 9.2 13.4 19.1 26.4 31.8 36.6-21.6-7.3-50.4-52.3-58.9-54.1 37.3 66.6 151.1 116.9 210.7 92-27.6 1-62.6 0.5-93.6-10.9-13-6.7-30.7-20.6-27.5-23.2 81.3 30.4 165.3 23 235.7-33.4 17.9-14 37.5-37.7 43.2-38-8.6 12.8 1.4 6.1-5.1 17.4 17.8-28.7-7.8-11.7 18.4-49.7l9.7 13.4c-3.6-23.9 29.7-52.9 26.3-90.7 7.6-11.6 8.5 12.4 0.4 39 11.2-29.5 3-34.2 5.8-58.6 3.1 8.2 7.3 16.9 9.4 25.5-7.4-28.5 7.4-47.9 11.1-64.5-3.6-1.6-11.3 12.6-13-21.1 0.2-14.6 4-7.6 5.5-11.2-2.9-1.7-10.4-12.9-15-34.4 3.3-5 8.9 13.1 13.4 13.8-2.9-17-7.9-30.1-8.1-43.2-13.2-27.6-4.7 3.7-15.4-11.8-14-43.9 11.7-10.2 13.4-30.1 21.3 30.8 33.5 78.7 39.1 98.5-4.3-24.2-11.2-47.6-19.6-70.2 6.5 2.7-10.4-49.7 8.4-15-20.1-74-86-143.1-146.7-175.6 7.4 6.8 16.8 15.3 13.4 16.7-30.2-18-24.9-19.4-29.2-27-24.6-10-26.2 0.8-42.4 0-46.4-24.6-55.3-21.9-98-37.3l2 9.1c-30.7-10.3-35.8 3.8-69 0-2-1.6 10.7-5.7 21.1-7.2-29.7 3.9-28.3-5.9-57.4 1 7.2-5 14.8-8.3 22.4-12.6-24.2 1.5-57.8 14.1-47.4 2.6-39.5 17.6-109.6 42.4-149 79.3l-1.2-8.3c-18 21.6-78.6 64.6-83.4 92.7l-4.9 1.1c-9.3 15.9-15.4 33.9-22.8 50.2-12.3 20.9-18 8.1-16.3 11.4-24.1 48.9-36.1 90-46.5 123.7 7.4 11.1 0.2 66.4 3 110.8-12.1 218.9 153.6 431.4 334.8 480.4 26.5 9.5 66 9.2 99.6 10.1-39.6-11.3-44.8-6-83.4-19.4-27.8-13.1-33.9-28.1-53.6-45.2l7.8 13.8c-38.7-13.7-22.5-17-54-26.9l8.3-10.9c-12.5-1-33.2-21.1-38.8-32.3l-13.7 0.5c-16.5-20.3-25.3-35-24.6-46.3l-4.5 7.9c-5-8.7-60.6-76.3-31.8-60.6-5.3-4.8-12.4-7.9-20.2-22l5.9-6.7c-13.9-17.8-25.6-40.7-24.7-48.4 7.4 10 12.6 11.9 17.7 13.6-35.1-87-37.1-4.8-63.6-88.5l5.6-0.5c-4.3-6.5-6.9-13.5-10.4-20.4l2.5-24.4c-25.3-29.1-7.1-124.1-3.4-176.1 2.5-21.2 21-43.7 35.1-79l-8.5-1.5c16.4-28.7 93.7-115.1 129.6-110.6 17.3-21.8-3.5-0.1-6.9-5.6 38.2-39.5 50.1-27.9 75.9-35 27.7-16.5-23.8 6.4-10.7-6.3 48-12.2 34-27.8 96.6-34 6.6 3.7-15.3 5.8-20.8 10.6 39.9-19.5 126.4-15.1 182.6 10.9 65.2 30.5 138.5 120.5 141.4 205.3l3.3 0.9c-1.7 33.7 5.1 72.6-6.7 108.4z"/>
	<path id="Layer" fill-rule="evenodd" class="s0" d="m318.4 581.4c-13.4-11.1-21.7-26.5-32.2-40.7l2.3-11.2c13.1 25.4 20.2 33.1 29.9 51.9zm-0.3-38.4c-6.7-11.3-13.9-22.4-17.4-35.3 3.7 7.3 7 14.7 12.5 20.8zm402.7-15.1c14.2-28 23.5-58.1 27.8-88.6l2.3-5.8c-4.3 32.6-14.4 64.9-30.1 94.4zm-322.2-524c14.6-1.9 29.4-2.6 44.3-3.8-11.4 2.5-27.1 0.8-37.9 4.7zm-371.5 201.9q0.1 0.7 0.2 1.3-0.2-0.5-0.2-1.3zm0.2 1.3c1.4 6.2 15.2-9.3 4.2 15.4-21.2 14.8-2.6 6.6-4.2-15.4zm-17.8 71.6c-1.9 8.9-2.8 18-7.8 33.4 1.4-12-6-15.8 7.8-33.4z"/>
</svg>